{"title":"The X-Files S06 Season 6 720p 5 1Ch BluRay ReEnc-DeeJayAhmed","uid":13133298,"size":8487780362,"categoryP":"video","categoryS":"hd___tv_shows","magnet":"?xt=urn:btih:0eee502fbd5ba0a6d5918484d6943cfb1419a83e&amp;dn=The+X-Files+S06+Season+6+720p+5+1Ch+BluRay+ReEnc-DeeJayAhmed&amp;tr=udp%3A%2F%2Ftracker.leechers-paradise.org%3A6969&amp;tr=udp%3A%2F%2Fzer0day.ch%3A1337&amp;tr=udp%3A%2F%2Fopen.demonii.com%3A1337&amp;tr=udp%3A%2F%2Ftracker.coppersurfer.tk%3A6969&amp;tr=udp%3A%2F%2Fexodus.desync.com%3A6969","seeders":8,"leechers":8,"uploader":"DeeJayPirate","files":46,"time":1451867795,"description":"DeeJayAhmed  \nhttps://www.DeeJayAhmed.com\r\r\nKeep Seeding!!=)) \r\nDo Comment On The A/V Quality Considering The Size Of The File..!\r\n\r\nVideo \r\nID : 1 \r\nFormat : AVC \r\nFormat/Info : Advanced Video Codec \r\nFormat profile :    \r\nFormat settings, CABAC : Yes \r\nFormat settings, ReFrames : 8 frames \r\nCodec ID : V_MPEG4/ISO/AVC \r\nDuration : 44mn 33s \r\nBit rate : 948 Kbps \r\nWidth : 1 280 pixels \r\nHeight : 720 pixels \r\nDisplay aspect ratio : 16:9 \r\nFrame rate mode : Constant \r\nFrame rate : 23.976 (24000/1001) fps \r\nColor space : YUV \r\nChroma subsampling : 4:2:0 \r\nBit depth : 8 bits \r\nScan type : Progressive \r\nBits/(Pixel*Frame) : 0.043 \r\nStream size : 302 MiB (83%) \r\nDefault : Yes \r\nForced : No \r\n\r\nAudio \r\nID : 2 \r\nFormat : AAC \r\nFormat/Info : Advanced Audio Codec \r\nFormat profile : HE-AACv2 / HE-AAC / LC \r\nCodec ID : A_AAC \r\nDuration : 44mn 33s \r\nBit rate : 188 Kbps \r\nChannel(s) : 6 channels \r\nChannel(s)_Original : 2 channels / 22 channels / 22 channels \r\nChannel positions : Front: L R / Front: 5, Back: 16, LFE / Front: 5, Back: 16, LFE \r\nSampling rate : 48.0 KHz / 48.0 KHz / 24.0 KHz \r\nFrame rate : 23.438 fps (1024 spf) \r\nCompression mode : Lossy \r\nDelay relative to video : 31ms \r\nStream size : 59.8 MiB (16%) \r\nLanguage : English \r\nDefault : Yes \r\nForced : No","torrent":{"xt":"urn:btih:0eee502fbd5ba0a6d5918484d6943cfb1419a83e","amp;dn":"The+X-Files+S06+Season+6+720p+5+1Ch+BluRay+ReEnc-DeeJayAhmed","amp;tr":["udp%3A%2F%2Ftracker.leechers-paradise.org%3A6969","udp%3A%2F%2Fzer0day.ch%3A1337","udp%3A%2F%2Fopen.demonii.com%3A1337","udp%3A%2F%2Ftracker.coppersurfer.tk%3A6969","udp%3A%2F%2Fexodus.desync.com%3A6969"],"infoHash":"0eee502fbd5ba0a6d5918484d6943cfb1419a83e","infoHashBuffer":{"type":"Buffer","data":[14,238,80,47,189,91,160,166,213,145,132,132,214,148,60,251,20,25,168,62]},"announce":[],"urlList":[]}}